<?xml version="1.0" standalone="no"?>
<!DOCTYPE svg PUBLIC "-//W3C//DTD SVG 20010904//EN"
 "http://www.w3.org/TR/2001/REC-SVG-20010904/DTD/svg10.dtd">
<svg version="1.0" xmlns="http://www.w3.org/2000/svg"
 width="592.000000pt" height="133.000000pt" viewBox="0 0 592.000000 133.000000"
 preserveAspectRatio="xMidYMid meet">

<g transform="translate(0.000000,133.000000) scale(0.100000,-0.100000)"
fill="#000000" stroke="none">
<path d="M1670 1198 c-6 -7 -55 -96 -108 -198 l-98 -185 -134 -5 -135 -5 0
-53 0 -52 103 0 c56 0 102 -2 102 -4 0 -2 -54 -106 -121 -232 -67 -126 -135
-255 -151 -288 l-29 -58 58 32 c67 38 66 34 -8 -20 l-53 -40 612 0 c483 0 612
3 612 13 0 6 -72 142 -160 302 l-160 290 90 3 90 3 0 54 0 55 -122 0 -123 1
-99 182 c-54 100 -106 190 -114 200 -18 20 -37 22 -52 5z m74 -272 c31 -57 56
-107 56 -110 0 -3 -52 -6 -115 -6 l-115 0 55 110 c30 61 57 110 59 110 3 0 30
-47 60 -104z m238 -438 c64 -117 126 -230 138 -251 l22 -37 -451 0 -452 0 12
22 c34 66 234 436 246 456 13 21 18 22 192 22 l178 0 115 -212z"/>
<path d="M200 610 l0 -530 375 0 375 0 0 60 0 60 -315 0 -315 0 0 470 0 470
-60 0 -60 0 0 -530z"/>
<path d="M2745 1100 c-96 -28 -151 -61 -231 -140 -82 -81 -116 -138 -145 -240
-42 -153 -23 -279 66 -425 36 -59 154 -148 249 -188 88 -36 96 -38 241 -43
140 -6 155 -4 225 18 l75 24 3 247 2 247 -60 0 -60 0 0 -204 0 -204 -84 -7
c-240 -20 -427 61 -508 220 -69 136 -73 197 -19 319 31 69 53 103 100 150 52
53 73 65 150 94 87 31 91 32 260 32 l171 0 0 60 0 60 -187 -1 c-146 -1 -201
-5 -248 -19z"/>
<path d="M3825 1091 c-68 -13 -96 -26 -175 -78 -112 -72 -138 -98 -178 -178
-52 -102 -62 -134 -63 -203 -1 -132 24 -209 105 -318 80 -107 192 -181 311
-206 108 -23 189 -22 259 2 169 58 275 168 337 349 23 66 25 211 5 289 -43
162 -205 310 -381 348 -76 17 -119 16 -220 -5z m293 -145 c76 -38 128 -90 169
-168 26 -50 28 -61 28 -178 0 -118 -2 -128 -28 -178 -85 -161 -237 -234 -423
-202 -160 28 -274 135 -319 301 l-21 75 21 80 c30 118 88 199 180 250 89 50
150 64 247 59 63 -4 90 -11 146 -39z"/>
<path d="M5495 879 c-137 -116 -255 -213 -262 -216 -7 -2 -129 88 -272 201
-142 113 -262 206 -265 206 -3 0 -6 -223 -6 -495 l0 -495 60 0 60 0 0 375 c0
206 3 375 6 375 3 0 96 -75 205 -166 110 -91 205 -164 212 -160 6 3 98 79 202
169 l190 164 3 -378 2 -379 60 0 60 0 0 505 c0 278 -1 505 -2 505 -2 -1 -115
-95 -253 -211z"/>
</g>
</svg>
